# xmcd CD database file
#
# Track frame offsets:
#	150
#	25617
#	45512
#	83970
#	107952
#	144002
#	177457
#
# Disc length: 2682 seconds
#
# Revision: 0
# Processed by: cddbd v1.5.1PL0 Copyright (c) Steve Scherf et al.
# Submitted via: CDex 1.51
#
DISCID=500a7807
DTITLE=Raphael Preston - The Mechanics Of Descent
DYEAR=1900
DGENRE=New Age
TTITLE0=Indians
TTITLE1=Caravan
TTITLE2=Gregorian Dance
TTITLE3=Flux
TTITLE4=Reckoning
TTITLE5=Ami
TTITLE6=Independent
EXTD=
EXTT0=
EXTT1=
EXTT2=
EXTT3=
EXTT4=
EXTT5=
EXTT6=
PLAYORDER=
